<?xml version="1.0" encoding="UTF-8" standalone="no"?>
<!-- Created with Inkscape (http://www.inkscape.org/) -->

<svg
   width="178.99661"
   height="48.414513"
   viewBox="0 0 47.35952 12.809673"
   version="1.1"
   id="svg5"
   xml:space="preserve"
   inkscape:export-filename="bitmap.svg"
   inkscape:export-xdpi="98.717163"
   inkscape:export-ydpi="98.717163"
   inkscape:version="1.2 (dc2aedaf03, 2022-05-15)"
   sodipodi:docname="bitmap.svg"
   xmlns:inkscape="http://www.inkscape.org/namespaces/inkscape"
   xmlns:sodipodi="http://sodipodi.sourceforge.net/DTD/sodipodi-0.dtd"
   xmlns="http://www.w3.org/2000/svg"
   xmlns:svg="http://www.w3.org/2000/svg"><sodipodi:namedview
     id="namedview7"
     pagecolor="#ffffff"
     bordercolor="#eeeeee"
     borderopacity="1"
     inkscape:showpageshadow="0"
     inkscape:pageopacity="0"
     inkscape:pagecheckerboard="0"
     inkscape:deskcolor="#505050"
     inkscape:document-units="mm"
     showgrid="false"
     inkscape:zoom="2.3786088"
     inkscape:cx="118.13628"
     inkscape:cy="36.155588"
     inkscape:window-width="1366"
     inkscape:window-height="705"
     inkscape:window-x="-8"
     inkscape:window-y="-8"
     inkscape:window-maximized="1"
     inkscape:current-layer="layer1" /><defs
     id="defs2" /><g
     inkscape:label="Layer 1"
     inkscape:groupmode="layer"
     id="layer1"
     transform="translate(-0.46366218,-0.66313735)"><rect
       style="fill:#14b8a6;fill-opacity:1;stroke:#000000;stroke-width:0;stroke-linecap:square;stroke-linejoin:bevel;stroke-dasharray:none;stroke-dashoffset:0;stroke-opacity:1;paint-order:markers fill stroke"
       id="rect178"
       width="8.4326582"
       height="5.4043121"
       x="7.8011608"
       y="4.454452"
       ry="0"
       inkscape:transform-center-x="-3.185187"
       inkscape:transform-center-y="1.4571675"
       transform="matrix(0.98812327,-0.1536633,-0.35564958,0.93461938,0,0)" /><rect
       style="fill:#14b8a6;fill-opacity:1;stroke:#000000;stroke-width:0;stroke-linecap:square;stroke-linejoin:bevel;stroke-dasharray:none;stroke-dashoffset:0;stroke-opacity:1;paint-order:markers fill stroke"
       id="rect7860"
       width="1.5964997"
       height="1.4327197"
       x="15.178233"
       y="14.48194"
       ry="0"
       inkscape:transform-center-x="-0.12306853"
       inkscape:transform-center-y="-0.086245651"
       transform="matrix(0.96734566,-0.25346078,0.12553891,0.9920887,0,0)" /><rect
       style="fill:#14b8a6;fill-opacity:1;stroke:#000000;stroke-width:0;stroke-linecap:square;stroke-linejoin:bevel;stroke-dasharray:none;stroke-dashoffset:0;stroke-opacity:1;paint-order:markers fill stroke"
       id="rect7858"
       width="4.6721191"
       height="3.1221318"
       x="12.216954"
       y="10.653093"
       ry="0"
       inkscape:transform-center-x="-0.36571308"
       inkscape:transform-center-y="-0.18664553"
       transform="matrix(0.98227739,-0.18743302,0.17119297,0.98523752,0,0)" /><rect
       style="fill:#14b8a6;fill-opacity:1;stroke:#000000;stroke-width:0;stroke-dasharray:none;stroke-dashoffset:0;stroke-opacity:1;paint-order:stroke fill markers"
       id="rect3639"
       width="5.7612839"
       height="3.4854352"
       x="37.20565"
       y="4.1780972" /><path
       style="fill:#0f172a;fill-opacity:1;stroke:#000000;stroke-width:0.1;stroke-dasharray:none;stroke-dashoffset:0;stroke-opacity:1;paint-order:stroke fill markers"
       id="path383"
       d="M 3.9438219,2.4600093 C 4.3359041,2.4210073 4.7006381,2.3283685 5.0524084,2.2101391 5.8890403,1.9151304 6.7025917,1.5937369 7.5148184,1.2689433 7.6236167,1.2254374 7.7138873,1.1637722 7.8186752,1.1160795 7.6900143,1.1455812 8.2577177,0.92799044 8.1451256,0.97197504 7.596841,1.1863274 7.0485567,1.4006807 6.5002717,1.6150331 6.4995459,1.6133831 6.7077053,1.5563951 6.5385198,1.5949513 6.2816228,2.2548416 5.9213674,2.8968506 5.5897423,3.5418404 5.0133299,4.6717472 4.5376024,5.8221404 4.1357895,6.9847487 3.6833868,8.2413656 3.2844692,9.5057745 2.909595,10.773572 c -0.1718481,0.26538 -0.1217596,1.070041 -0.3986318,1.275299 -0.036404,0.027 -0.094941,0.03547 -0.1424121,0.05321 0.5405232,-0.220366 1.0983691,-0.422816 1.6215688,-0.661095 0.051041,-0.02325 -0.1234388,0.0098 -0.1850648,0.0069 -0.071461,-0.0034 -0.1414624,-0.01551 -0.2114217,-0.02583 -0.2078749,-0.03068 -0.3934315,-0.08075 -0.5875708,-0.137331 -0.2649298,-0.08121 -0.4366778,-0.238762 -0.6499281,-0.364314 0,0 -1.77562733,0.740723 -1.77562733,0.740723 v 0 c 0.23831385,0.126545 0.40973445,0.301764 0.68802833,0.39518 1.421565,0.420161 1.1078714,0.234844 3.0343067,-0.487813 0.3651321,-0.386189 0.19278,-0.948015 0.3932683,-1.375535 C 5.0202798,8.9326902 5.3741572,7.675887 5.8480607,6.436154 6.2935667,5.2715202 6.7912238,4.1171894 7.3830783,2.9814627 7.7371838,2.3126817 8.1399111,1.6493291 8.4171069,0.96565864 8.3997532,0.90769171 8.354251,0.67337091 8.1429325,0.74760008 7.3514805,1.0256118 6.5848488,1.2818579 5.8753748,1.6279375 5.2769542,1.9212779 4.34784,2.2583585 7.1975191,1.1523198 7.3116552,1.1080207 6.7282719,1.309019 6.8489335,1.2778526 6.792112,1.2968304 6.7352909,1.3158059 6.6784703,1.3347819 6.3521151,1.4649809 6.0021593,1.5806997 5.6209402,1.6121417 c 0,0 -1.6771183,0.8478625 -1.6771183,0.8478625 z" /><ellipse
       id="path405"
       style="fill:#e6e6e6;fill-opacity:1;stroke:#000000;stroke-width:0;stroke-dasharray:none;stroke-dashoffset:0;stroke-opacity:1"
       cx="10.594887"
       cy="11.115012"
       rx="0.11792405"
       ry="0.078738153" /><path
       style="fill:#e6e6e6;fill-opacity:1;stroke:#000000;stroke-width:0.1;stroke-dasharray:none;stroke-dashoffset:0;stroke-opacity:1;paint-order:stroke fill markers"
       id="path579"
       d="m 3.7514163,3.5889144 c 0.3554575,0.045697 0.7113294,0.062539 1.0723569,0.050572 C 5.7402884,3.5589012 6.6153485,3.3494247 7.484715,3.1485766 8.4108844,2.9536701 9.3198206,2.7253525 10.219347,2.4816451 11.191745,2.2060957 12.187709,1.97127 13.176968,1.7248356 c 0.284734,-0.062822 0.566886,-0.1449591 0.866544,-0.1718941 0.09768,-0.00878 0.09011,0.0177 0.09219,-0.015498 -0.0069,0.00252 -0.01768,0.00273 -0.02062,0.0076 -0.03955,0.06523 -0.05397,0.1322015 -0.107202,0.1966139 -0.05189,0.062786 -0.118591,0.1195839 -0.177103,0.1797174 -0.248276,0.2537015 -0.422605,0.5340023 -0.575673,0.8179978 -0.217423,0.436304 -0.445426,0.8699863 -0.658323,1.3074201 -0.155399,0.4093217 -0.364059,0.8084306 -0.535739,1.2145915 -0.11615,0.3199033 -0.17148,0.6469073 -0.279118,0.9680364 -0.103641,0.2860406 -0.206349,0.5719051 -0.32639,0.8550936 -0.07573,0.1963193 -0.05729,0.3711741 -0.383391,0.4417769 2.561531,-0.9687739 2.071867,-0.6221417 1.075361,-0.60199 -0.488353,0.00706 -0.976801,1.602e-4 -1.464983,0.011808 C 10.161935,6.9492549 9.6485351,7.007925 9.1328634,7.0520101 8.6952839,7.0900108 8.2540089,7.0980264 7.8133472,7.1015181 7.5874599,7.0982301 7.3590185,7.110587 7.1343488,7.0945581 5.1156329,8.0058127 4.9333225,7.9537203 6.174848,7.910611 6.6289649,7.873132 7.0845247,7.847904 7.5415505,7.834031 8.0055572,7.824111 8.4698497,7.823237 8.9340436,7.824681 c 0.29617,0.010935 0.5990067,-0.018441 0.8908343,0.023241 0.2169411,0.056817 0.2374081,0.2048095 0.2605541,0.341325 0.0409,0.2619271 -0.0083,0.5229272 -0.03707,0.7841404 -0.097411,0.3449624 -0.2063588,0.6881212 -0.3026326,1.0336446 -0.081254,0.314496 -0.2106201,0.620652 -0.2763438,0.937155 -9.17e-4,0.167152 -0.126158,0.386498 0.014079,0.543715 0.026405,0.02961 0.06878,0.05138 0.1031707,0.07707 0.2281496,0.102041 0.4531437,0.05301 0.6959657,-2.01e-4 0.105143,-0.02304 0.465374,-0.109931 0.563678,-0.133487 0.349117,-0.07748 0.69228,-0.165337 1.033546,-0.25686 0,0 1.61549,-0.849157 1.61549,-0.849157 v 0 c -0.344257,0.09441 -0.684929,0.194608 -1.041338,0.267801 -0.09466,0.02295 -0.189312,0.04589 -0.283968,0.06883 -0.08786,0.01971 -0.17634,0.03819 -0.263572,0.05908 -0.172012,0.04121 -0.351684,0.1079 -0.539043,0.102527 -0.0162,-0.0032 -0.0384,-6e-4 -0.04861,-0.0096 -0.109946,-0.09673 0.01532,-0.367391 0.0077,-0.479815 0.06704,-0.311217 0.184588,-0.6157427 0.263031,-0.9256705 C 11.68972,9.0600569 11.80888,8.713656 11.883243,8.3625323 11.924833,8.0895076 11.982913,7.8166249 11.932563,7.541884 11.895673,7.3504016 11.818088,7.169012 11.554821,7.0630011 11.252644,6.9788381 10.92862,7.0165751 10.607706,7.0124361 10.137665,7.0148661 9.6675541,7.0157861 9.1976524,7.0245681 8.7445317,7.0322981 8.2917744,7.0458831 7.842116,7.0867391 6.464733,7.2030867 7.7315892,6.730519 5.4153551,7.9256422 c 0.2396262,-0.019092 0.4838458,0.00123 0.7241651,-0.00953 0.4475864,-0.00566 0.8961142,-0.010773 1.3417458,-0.04136 0.5173326,-0.043876 1.0298178,-0.111028 1.5515331,-0.1290819 0.4757837,-0.023766 0.9525993,-0.00688 1.4292789,-0.0024 1.090395,0.010731 1.271423,-0.1214803 2.563826,-0.7250974 0.206851,-0.145294 0.229469,-0.340563 0.299015,-0.5283953 0.111677,-0.284978 0.212196,-0.572023 0.312217,-0.8588463 0.09826,-0.317888 0.148994,-0.6415524 0.272221,-0.9559043 0.172418,-0.4019165 0.356347,-0.8015912 0.52155,-1.2049006 0.210159,-0.4396046 0.443267,-0.8736349 0.682386,-1.3065832 0.170789,-0.2783228 0.361956,-0.552132 0.617253,-0.8011061 0.158232,-0.1728061 0.32608,-0.36602336 0.195526,-0.56930376 -0.03175,-0.0224758 -0.05369,-0.053821 -0.09522,-0.0674273 -0.184446,-0.0603952 -0.885534,0.12704391 -1.06488,0.16753991 C 13.763406,1.1543849 12.752654,1.4009624 11.757137,1.6741661 10.86155,1.9103643 9.9603497,2.1380615 9.0445883,2.3370831 8.2078634,2.5337669 7.3692561,2.7379467 6.4868221,2.8225797 6.1468906,2.8385036 5.8110407,2.8432645 5.4773489,2.7859276 c 0,0 -1.7259299,0.8030042 -1.7259299,0.8030042 z" /><path
       style="fill:#0f172a;fill-opacity:1;stroke:#000000;stroke-width:0.1;stroke-dasharray:none;stroke-dashoffset:0;stroke-opacity:1;paint-order:stroke fill markers"
       id="path587"
       d="m 11.063578,3.8603037 c 0.309065,-0.00622 0.618189,-0.012072 0.925491,0.013359 0.291545,0.03528 0.570082,0.1043204 0.850821,0.1654748 0.303802,0.074694 0.606384,0.1469145 0.917722,0.206505 0.466103,0.078381 0.931779,0.1579911 1.397061,0.2385418 0.720048,0.1169539 1.462633,0.1466548 2.201011,0.1456783 0.84532,-0.019335 1.68265,-0.1031639 2.502028,-0.240571 1.095374,-0.1619771 1.834108,-0.5461938 2.860511,-0.9428742 0,0 -1.948157,0.5065774 -1.948157,0.5065774 v 0 c 3.366738,-1.2824896 2.011898,-0.7181114 1.393281,-0.5419132 -0.222133,0.06327 -0.460543,0.1050553 -0.691234,0.1508655 -0.814919,0.1561184 -1.648394,0.2633425 -2.498379,0.2825612 -0.713345,0.00147 -1.431729,-0.02349 -2.12762,-0.136433 C 16.38893,3.6232791 15.928876,3.5452768 15.469973,3.4650234 15.163634,3.400414 14.85767,3.3415236 14.563129,3.2541288 14.26977,3.1986659 13.98662,3.1224415 13.690371,3.0725805 c -0.30785,-0.032789 -0.612715,-0.039648 -0.924567,-0.038048 0,0 -1.702226,0.8257733 -1.702226,0.8257733 z" /><path
       style="fill:#0f172a;fill-opacity:1;stroke:#000000;stroke-width:0.1;stroke-dasharray:none;stroke-dashoffset:0;stroke-opacity:1;paint-order:stroke fill markers"
       id="path589"
       d="m 22.411873,4.4008654 c -0.359614,0.2149488 -0.748113,0.4063286 -1.153855,0.5805378 -0.78721,0.2849648 0.05061,-0.016428 1.376092,-0.5421685 0.04944,-0.019608 -0.103412,0.033598 -0.154958,0.05062 -0.122698,0.040521 -0.244484,0.078875 -0.371049,0.1137064 -0.749324,0.2469156 -0.102717,0.031986 -1.9833,0.7617621 -0.142093,0.05514 -0.22739,0.1132372 -0.308982,0.208369 -0.163844,0.1810194 -0.340961,0.3552901 -0.510105,0.5346298 -0.309688,0.2444427 -0.43808,0.5463877 -0.565104,0.8480986 -0.181733,0.4928123 -0.339876,0.9891977 -0.512791,1.4833573 -0.194341,0.5637683 -0.304168,1.1368283 -0.381216,1.7122541 -0.02847,0.286062 -0.109021,0.567747 -0.150468,0.853113 -0.02185,0.249058 -0.0524,0.499078 -0.131647,0.743294 -0.118511,0.272331 -0.210201,0.548668 -0.415741,0.798715 -0.08804,0.07209 -0.102544,0.09643 -0.218965,0.145781 -0.03871,0.01641 -0.163,0.05596 -0.123559,0.04035 3.213837,-1.271846 2.112398,-0.709592 1.453511,-0.604071 -0.239262,0.02076 -0.354223,-0.0843 -0.493145,-0.195622 -0.231433,-0.21232 -0.480834,-0.416084 -0.729296,-0.619779 -0.483092,-0.36863 -0.969887,-0.733189 -1.418192,-1.121314 C 15.067015,9.719733 14.552542,9.2318445 14.096694,8.715687 13.974671,8.4942274 13.609296,8.2679474 13.678615,8.0163141 c 0.05826,-0.05784 0.145297,-0.082106 0.232902,-0.1139089 0.03669,-0.013329 0.143991,-0.056546 0.107936,-0.042476 -1.709963,0.6673506 -2.235049,0.8215731 -1.488799,0.5958733 0.49923,-0.1190496 1.027152,-0.1727386 1.542101,-0.2537552 0.84432,-0.13205 1.691081,-0.2549789 2.540134,-0.3725576 1.454871,-0.1886729 2.89732,-0.4153546 4.350766,-0.6090342 1.302462,-0.1576125 2.613929,-0.2799855 3.921927,-0.4154659 0.537465,-0.061714 1.074609,-0.1242462 1.614031,-0.1778929 0,0 1.627873,-0.816183 1.627873,-0.816183 v 0 c -0.559198,0.062877 -1.116122,0.1339933 -1.672587,0.2068494 -1.32711,0.1485268 -2.659775,0.2739471 -3.982383,0.4395797 -1.429707,0.1952048 -2.856962,0.3983475 -4.29099,0.578895 -0.831829,0.1084963 -1.663876,0.2140566 -2.489787,0.3419456 -0.508742,0.078302 -1.021728,0.1412891 -1.530401,0.2195913 -0.848636,0.2103276 -0.211329,0.045641 -2.087988,0.7716536 -0.155621,0.060206 -0.249309,0.1604627 -0.260354,0.2792465 0.04321,0.2844345 0.331812,0.5040743 0.52903,0.7489154 0.498366,0.5029933 1.024267,0.9911088 1.572159,1.4709368 0.193312,0.174829 0.374258,0.355745 0.571811,0.528445 0.246199,0.215229 0.549013,0.400559 0.786361,0.620891 0.241531,0.206788 0.479322,0.415373 0.702681,0.630996 0.160016,0.137915 0.314339,0.290991 0.597145,0.308778 0.910742,0.0497 1.98035,-0.450139 2.464409,-0.982205 0.173045,-0.266749 0.27805,-0.550732 0.389538,-0.831115 0.06244,-0.250741 0.109777,-0.503377 0.130031,-0.757304 0.03865,-0.280743 0.107473,-0.5599227 0.109024,-0.8425467 0.04785,-0.5654929 0.152466,-1.1286405 0.355251,-1.6795322 0.183177,-0.4986836 0.373549,-0.9961705 0.569613,-1.4926552 0.144221,-0.2967309 0.318889,-0.5775702 0.615496,-0.8229294 0.169613,-0.1799322 0.351197,-0.3549106 0.535203,-0.5282786 0.07985,-0.051134 0.16146,-0.088256 0.254219,-0.1282877 0.02804,-0.012108 0.112792,-0.047764 0.08374,-0.036755 -1.819379,0.6893954 -2.298975,0.8368793 -1.604585,0.6199853 0.124414,-0.048968 0.25629,-0.074681 0.385098,-0.1184145 0.788976,-0.2678746 1.559604,-0.5622731 2.31025,-0.8757448 0.4097,-0.1900574 0.813295,-0.3876844 1.177456,-0.6161681 0,0 -1.935052,0.5351797 -1.935052,0.5351797 z" /><path
       style="fill:#0f172a;fill-opacity:1;stroke:#000000;stroke-width:0.1;stroke-dasharray:none;stroke-dashoffset:0;stroke-opacity:1;paint-order:stroke fill markers"
       id="path591"
       d="m 23.739602,2.8273677 c -0.06271,0.3048699 -0.04678,0.6132033 -0.106805,0.9187647 -0.02548,0.1297541 -0.06217,0.2584171 -0.09326,0.3876258 -0.236893,0.9074725 -0.571145,1.8020403 -0.84762,2.7042473 -0.174458,0.6230206 -0.452431,1.2302552 -0.614911,1.8546246 -0.121469,0.5763771 -0.216272,1.154791 -0.331712,1.7316639 -0.06329,0.413411 -0.182913,0.82135 -0.243422,1.235019 -0.02025,0.14021 -0.03148,0.280851 -0.04181,0.421502 0,0 1.851339,-0.623556 1.851339,-0.623556 v 0 c 0.0065,-0.136583 0.01345,-0.273195 0.03091,-0.409403 0.05708,-0.407936 0.149108,-0.812917 0.212329,-1.2204057 0.09878,-0.5734093 0.18116,-1.1482526 0.317846,-1.7184521 0.179173,-0.6163155 0.435899,-1.2214116 0.581174,-1.8423929 0.24557,-0.9064699 0.561708,-1.8029727 0.842909,-2.7046654 0.133859,-0.4547383 0.227868,-0.912976 0.317778,-1.3723788 0,0 -1.874742,0.6378066 -1.874742,0.6378066 z" /><path
       style="fill:#0f172a;fill-opacity:1;stroke:#000000;stroke-width:0.1;stroke-dasharray:none;stroke-dashoffset:0;stroke-opacity:1;paint-order:stroke fill markers"
       id="path593"
       d="m 23.123002,2.3138258 c 0.175119,-0.1783983 0.340052,-0.3411182 0.62272,-0.4484169 -3.102481,1.1903363 -1.779742,0.657385 -1.030258,0.4508199 0.265923,-0.087403 0.549596,-0.132869 0.841442,-0.1586576 0.330718,-0.019653 0.663205,-0.018243 0.994924,-0.019788 0.396786,-0.00153 0.793576,7.8e-4 1.19037,3.9e-4 0.465952,-0.019242 0.915911,0.00882 1.357266,0.1102417 0.56797,0.1270268 1.089969,0.3246358 1.615104,0.5132487 0.443403,0.1455073 0.882538,0.2958898 1.329395,0.4367594 0.31328,0.126384 0.647475,0.2109376 1.004567,0.2605922 0.287284,0.034518 0.579681,0.037683 0.870671,0.039469 0.847455,-0.051486 1.629848,-0.5275097 2.267298,-0.7785608 0.142616,-0.056166 0.23761,-0.1635214 0.320023,-0.254563 0.07528,-0.09157 0.102373,-0.184875 0.112448,-0.2871659 0,0 -1.877206,0.6178136 -1.877206,0.6178136 v 0 c -0.02801,0.081073 -0.0691,0.1557114 -0.147021,0.2225393 -0.08916,0.068888 -0.09929,0.083856 -0.211236,0.140176 -0.04395,0.022113 -0.185833,0.07863 -0.137753,0.060751 2.999803,-1.1155945 2.024044,-0.7056746 1.362963,-0.5401021 -0.285354,6.6e-4 -0.571584,0.00273 -0.855739,-0.017595 C 32.402207,2.6292593 32.07074,2.5649843 31.76919,2.4362467 31.319502,2.296741 30.866589,2.1620207 30.422644,2.0141516 29.886868,1.8328694 29.371311,1.6223056 28.807758,1.4798199 28.357654,1.3617498 27.902418,1.3043655 27.416831,1.3259794 c -0.395495,-9.9e-4 -0.790997,1.611e-4 -1.18648,-0.00237 -0.333221,-0.00174 -0.66664,-0.00369 -0.999647,0.00627 -0.302479,0.010572 -0.602746,0.039952 -0.881884,0.1231965 -0.894489,0.2762154 -1.720254,0.4385819 -2.541947,0.9232862 -0.245756,0.1425145 -0.413116,0.3253747 -0.616157,0.4934874 0,0 1.932286,-0.5559909 1.932286,-0.5559909 z" /><path
       style="fill:#0f172a;fill-opacity:1;stroke:#000000;stroke-width:0.1;stroke-dasharray:none;stroke-dashoffset:0;stroke-opacity:1;paint-order:stroke fill markers"
       id="path599"
       d="m 27.421676,5.0337785 c 0.356164,-0.00983 0.70001,-0.079083 1.031484,-0.1621997 0.194017,-0.038621 0.406032,-0.1677314 0.620031,-0.1405276 0.125534,0.1081501 -0.01876,0.2607187 -0.07203,0.3719189 -0.08075,0.2195733 -0.11955,0.4447858 -0.182562,0.667132 -0.210583,0.5207012 -0.494444,1.0261759 -0.74289,1.5391198 -0.465162,1.0235546 -0.857703,2.060408 -1.317622,3.0849971 -0.367073,0.829726 -0.737771,1.658618 -1.139245,2.481216 -0.0058,0.01377 -0.1347,0.323166 -0.157693,0.363515 -0.01459,0.02565 -0.03717,0.04906 -0.05969,0.07201 -0.006,0.0062 -0.03515,0.01746 -0.02514,0.01437 1.976407,-0.61014 1.507321,-0.233317 2.028411,-0.674172 0.09141,-0.113498 0.223034,-0.208 0.347957,-0.30489 0,0 -1.904815,0.540604 -1.904815,0.540604 v 0 c -0.124185,0.103346 -0.243513,0.208765 -0.358403,0.316842 -0.485713,0.466528 -0.168027,0.128458 1.814711,-0.467417 0.0073,-0.0021 -0.0059,-0.01044 -0.0049,-0.01578 0.02545,-0.143129 0.102369,-0.281494 0.144278,-0.422096 0.326748,-0.812881 0.631654,-1.629914 0.99622,-2.4357841 0.464882,-1.0390047 0.900995,-2.0845145 1.420403,-3.112125 0.279647,-0.5245436 0.588331,-1.0432931 0.811923,-1.5802203 0.07093,-0.2211294 0.121564,-0.4458488 0.219172,-0.662629 0.08461,-0.1827198 0.145016,-0.3726165 -0.04868,-0.5363837 -0.261872,-0.1471314 -0.489969,-0.048536 -0.761948,0.039024 -0.300943,0.1042237 -0.623079,0.164632 -0.956732,0.197713 0,0 -1.702224,0.825774 -1.702224,0.825774 z" /><path
       style="fill:#0f172a;fill-opacity:1;stroke:#000000;stroke-width:0.1;stroke-dasharray:none;stroke-dashoffset:0;stroke-opacity:1;paint-order:stroke fill markers"
       id="path611"
       d="m 32.121441,4.8132483 c 0.04039,0.2820518 -0.01142,0.5586785 -0.09532,0.8347964 -0.101455,0.4131808 -0.314526,0.8044858 -0.541251,1.1927363 -0.187464,0.3827846 -0.393757,0.7630353 -0.544801,1.1532898 -0.125167,0.2827607 -0.223532,0.5696011 -0.273942,0.8625563 0.01097,0.062965 -0.02736,0.1243671 -0.02537,0.1869138 0.0011,0.037425 0.07042,0.2270509 0.190138,0.1880843 0.672818,-0.2190047 1.296552,-0.4996676 1.944825,-0.7495015 0.07055,-0.029088 0.141237,-0.058016 0.211634,-0.087263 0.527378,-0.2190962 1.364002,-0.5737113 -1.114803,0.4271313 -0.118022,0.047652 0.243143,-0.087014 0.366128,-0.1286987 0.125928,-0.042683 0.252424,-0.084689 0.380529,-0.1243773 0.134681,-0.041725 0.27178,-0.079876 0.407671,-0.1198125 0.740598,-0.2171706 1.534976,-0.2983516 2.334092,-0.3423311 0.620283,-0.025983 1.241877,-0.02157 1.862966,-0.019131 0.55697,-0.00915 1.109649,0.011604 1.654538,0.08984 0.477109,0.1024403 0.963239,0.1784946 1.45191,0.2507651 0.301302,0.054629 0.607323,0.091747 0.917963,0.1108819 0.927439,0.047004 1.165061,-0.2718561 2.240087,-0.754342 0.01402,-0.00629 0.0604,-0.2004172 0.06195,-0.2064732 0.03511,-0.4157113 0.01035,-0.8321906 0.01013,-1.248223 0.01177,-0.5369299 -0.04524,-1.0725332 -0.08152,-1.6085289 -0.01907,-0.2830967 -0.02636,-0.566435 -0.02789,-0.8497867 0.01536,-0.2374242 0.0038,-0.370604 -0.341019,-0.4835433 -0.301142,-0.043708 -0.569888,0.034104 -0.851609,0.093137 -0.373319,0.078227 -0.366514,0.071202 -0.765742,0.1316402 -1.176072,0.1489395 -2.375306,0.1558991 -3.567746,0.1492836 -1.117642,-0.011232 -2.234597,-0.041692 -3.351436,-0.070864 -0.397356,-0.00822 -0.206537,-0.00442 -0.572459,-0.011463 0,0 -1.660391,0.8034044 -1.660391,0.8034044 v 0 c 0.380456,-9.3e-4 0.182195,-7.2e-4 0.594787,-4.8e-4 1.144857,1.611e-4 2.289676,0.01101 3.43412,0.031574 1.175882,0.017073 2.356894,0.031214 3.522983,-0.091707 0.326737,-0.03987 0.44014,-0.048613 0.750642,-0.1047122 0.08936,-0.016146 0.176812,-0.036669 0.265212,-0.055004 0.05904,-0.01644 0.115913,-0.036903 0.177117,-0.049322 0.09668,-0.019614 0.201291,-0.017196 0.29783,-0.037641 0.29418,-8.4e-4 0.196958,0.1898217 0.213441,0.3292891 0.01322,0.2802659 0.04205,0.5599661 0.07828,0.8393173 0.06272,0.531125 0.118946,1.0627327 0.09065,1.5959558 -7.64e-4,0.4123316 0.009,0.8313519 -0.09612,1.2385547 -0.01536,0.028566 -0.02441,0.058996 -0.04602,0.085701 -0.01788,0.02208 -0.103802,0.070504 -0.0707,0.058631 0.580536,-0.2082078 1.144929,-0.4359077 1.720399,-0.6502931 0.02931,-0.010914 -0.05067,0.030553 -0.08134,0.039681 -0.08721,0.025956 -0.152944,0.016839 -0.245894,0.014973 -0.308321,-0.010428 -0.614693,-0.034365 -0.91404,-0.087042 -0.492739,-0.076141 -0.997896,-0.118567 -1.475976,-0.2360728 -0.545649,-0.103055 -1.107104,-0.1323908 -1.673615,-0.1210866 -0.632647,-4.2e-4 -1.265916,-1.074e-4 -1.897765,0.023175 -0.813902,0.03538 -1.627452,0.1056032 -2.388269,0.314304 -1.32058,0.3643593 -2.54492,0.8609048 -3.75602,1.3652244 0.551234,-0.2074914 1.08029,-0.4437814 1.653704,-0.6224768 0.04496,-0.014019 0.02392,0.064358 0.03252,0.096987 0.0039,0.014586 -0.0133,-0.028683 -0.01364,-0.043491 -0.0011,-0.059974 0.0087,-0.1166718 0.01624,-0.1766178 0.04978,-0.2835762 0.141718,-0.5620784 0.260745,-0.8363345 0.155282,-0.3827156 0.342295,-0.7603251 0.53831,-1.1344032 0.229251,-0.3955845 0.428517,-0.7953866 0.531432,-1.2156795 0.08584,-0.2909671 0.143197,-0.58179 0.136453,-0.8789083 0,0 -1.874737,0.6378073 -1.874737,0.6378073 z" /><path
       style="fill:#0f172a;fill-opacity:1;stroke:#000000;stroke-width:0.1;stroke-dasharray:none;stroke-dashoffset:0;stroke-opacity:1;paint-order:stroke fill markers"
       id="path613"
       d="m 36.58274,4.722981 c 0.01437,0.216209 0.01081,0.4327799 0.01463,0.6491666 0.03849,0.4002734 0.0031,0.7983506 -0.05302,1.1968052 -0.04171,0.260749 -0.07164,0.5221245 -0.08478,0.784198 0.02174,0.1718602 -0.02801,0.3317166 -0.07935,0.4978499 -0.02499,0.1041686 -0.01398,0.051486 -0.0329,0.1580606 0,0 1.878081,-0.6172262 1.878081,-0.6172262 v 0 c 0.02449,-0.1012313 0.01112,-0.051024 0.04001,-0.1506315 0.05158,-0.1709737 0.05814,-0.342041 0.05378,-0.5162868 0.0089,-0.2556482 0.02755,-0.5110471 0.05422,-0.7661538 0.0388,-0.4045565 0.06501,-0.8090242 0.06942,-1.2144685 0.0038,-0.2197058 3.02e-4,-0.4395826 0.01459,-0.6591205 0,0 -1.874737,0.637807 -1.874737,0.637807 z" /><path
       style="fill:#0f172a;fill-opacity:1;stroke:#000000;stroke-width:0.1;stroke-dasharray:none;stroke-dashoffset:0;stroke-opacity:1;paint-order:stroke fill markers"
       id="path617"
       d="m 39.588859,6.1169859 c 0.430699,-3e-5 0.859552,-0.013539 1.288941,-0.035669 0.778881,-0.046832 1.544971,-0.1534101 2.308825,-0.261199 0.57874,-0.072024 1.143256,-0.1845105 1.716911,-0.2706637 0.37241,-0.063734 0.744686,-0.1335278 1.108866,-0.2164013 0.04686,-0.010539 0.09371,-0.021075 0.140568,-0.031615 0,0 1.647233,-0.852346 1.647233,-0.852346 v 0 c -0.0491,0.00996 -0.0982,0.01992 -0.147297,0.02988 -0.364042,0.088712 -0.734801,0.1598327 -1.105091,0.2364702 -0.591245,0.082369 -1.16163,0.2183169 -1.756436,0.2919755 -0.7547,0.1039117 -1.506752,0.2219978 -2.2762,0.2680578 -0.408088,0.016353 -0.815244,0.030419 -1.224092,0.015735 0,0 -1.702228,0.8257736 -1.702228,0.8257736 z" /></g></svg>
